<svg width="14" height="15" viewBox="0 0 14 15" fill="none" xmlns="http://www.w3.org/2000/svg">
<mask id="mask0_2_1103" style="mask-type:alpha" maskUnits="userSpaceOnUse" x="0" y="0" width="14" height="15">
<rect x="0.0527344" y="0.918343" width="13.2454" height="13.2454" fill="white"/>
</mask>
<g mask="url(#mask0_2_1103)">
<path d="M2.03922 2.24293H3.465C3.78874 2.24293 4.06503 2.47698 4.11826 2.79632L4.60788 5.73406C4.65568 6.02084 4.51084 6.30526 4.2508 6.43528L3.22551 6.94792C3.9648 8.78502 5.43114 10.2514 7.26824 10.9907L7.78088 9.96537C7.9109 9.70532 8.19533 9.56049 8.48211 9.60829L11.4198 10.0979C11.7392 10.1511 11.9732 10.4274 11.9732 10.7512V12.1769C11.9732 12.5427 11.6767 12.8392 11.311 12.8392H9.98643C5.23155 12.8392 1.37695 8.98462 1.37695 4.22973V2.9052C1.37695 2.53943 1.67346 2.24293 2.03922 2.24293Z" fill="white"/>
</g>
</svg>
