<svg width="18" height="15" viewBox="0 0 18 15" fill="none" xmlns="http://www.w3.org/2000/svg">
<path fill-rule="evenodd" clip-rule="evenodd" d="M15.9862 5.685L18 3C15.4913 1.1175 12.375 0 9 0C5.625 0 2.50875 1.1175 0 3L9 15L11.625 11.5012V9.375C11.625 7.305 13.305 5.625 15.375 5.625C15.585 5.625 15.7837 5.655 15.9862 5.685ZM17.25 9.375C17.25 8.34 16.41 7.5 15.375 7.5C14.34 7.5 13.5 8.34 13.5 9.375V10.5C13.0875 10.5 12.75 10.8375 12.75 11.25V14.25C12.75 14.6625 13.0875 15 13.5 15H17.25C17.6625 15 18 14.6625 18 14.25V11.25C18 10.8375 17.6625 10.5 17.25 10.5V9.375ZM14.25 10.5V9.375C14.25 8.7525 14.7525 8.25 15.375 8.25C15.9975 8.25 16.5 8.7525 16.5 9.375V10.5H14.25Z" fill="#FB8E0B"/>
</svg>
