<svg width="16" height="18" viewBox="0 0 16 18" fill="none" xmlns="http://www.w3.org/2000/svg">
<path fill-rule="evenodd" clip-rule="evenodd" d="M9.46707 1.89621C10.0359 1.89621 10.4152 1.51697 10.4152 0.948103C10.4152 0.379241 10.0359 0 9.46707 0H5.67466C5.1058 0 4.72656 0.379241 4.72656 0.948103C4.72656 1.51697 5.1058 1.89621 5.67466 1.89621H9.46707ZM14.3972 4.93014C14.7765 4.55089 14.7765 3.98203 14.3972 3.60279C14.018 3.22355 13.4491 3.22355 13.0699 3.60279L12.2166 4.45608C9.46707 2.27545 5.67466 2.27545 2.92516 4.45608L2.07187 3.60279C1.69263 3.22355 1.12376 3.22355 0.744523 3.60279C0.365281 3.98203 0.365281 4.55089 0.744523 4.93014L1.59782 5.78343C-0.962064 9.10179 -0.393201 13.8423 2.92516 16.4022C6.24352 18.9621 10.984 18.3932 13.5439 15.0748C15.7246 12.3253 15.7246 8.53293 13.5439 5.78343L14.3972 4.93014ZM7.57087 12.3253C6.52795 12.3253 5.67466 11.472 5.67466 10.4291C5.67466 9.76546 6.0539 9.10179 6.62276 8.81736V6.63672C6.62276 6.06786 7.002 5.68862 7.57087 5.68862C8.13973 5.68862 8.51897 6.06786 8.51897 6.63672V8.81736C9.46707 9.29141 9.7515 10.4291 9.18264 11.3772C8.8034 11.9461 8.23454 12.3253 7.57087 12.3253Z" fill="#4DA44E"/>
</svg>
