<svg width="25" height="14" viewBox="0 0 25 14" fill="none" xmlns="http://www.w3.org/2000/svg">
<path fill-rule="evenodd" clip-rule="evenodd" d="M2 14C1.46957 14 0.960859 13.7893 0.585786 13.4142C0.210714 13.0391 0 12.5304 0 12V2C0 1.46957 0.210714 0.96086 0.585786 0.585787C0.960859 0.210714 1.46957 0 2 0H15C15.5304 0 16.0391 0.210714 16.4142 0.585787C16.7893 0.96086 17 1.46957 17 2V12C17 12.5304 16.7893 13.0391 16.4142 13.4142C16.0391 13.7893 15.5304 14 15 14H2ZM19 10L23.445 12.964C23.5957 13.0645 23.7708 13.1222 23.9517 13.131C24.1326 13.1397 24.3125 13.0992 24.4722 13.0136C24.6319 12.9281 24.7653 12.8008 24.8583 12.6454C24.9512 12.4899 25.0002 12.3121 25 12.131V1.869C25 1.68796 24.9509 1.5103 24.8579 1.35499C24.7648 1.19968 24.6314 1.07254 24.4718 0.987126C24.3121 0.901717 24.1323 0.861244 23.9515 0.870028C23.7707 0.878811 23.5956 0.936521 23.445 1.037L19 4V10Z" fill="#FD6003"/>
</svg>
