<svg width="15" height="15" viewBox="0 0 15 15" fill="none" xmlns="http://www.w3.org/2000/svg">
<mask id="mask0_2_1108" style="mask-type:alpha" maskUnits="userSpaceOnUse" x="0" y="0" width="15" height="15">
<rect x="0.799805" y="0.918343" width="13.2454" height="13.2454" fill="white"/>
</mask>
<g mask="url(#mask0_2_1108)">
<path fill-rule="evenodd" clip-rule="evenodd" d="M4.57978 3.76136L7.42283 6.60441L10.2659 3.76136C10.5245 3.50273 10.9438 3.50273 11.2025 3.76136C11.4611 4.02 11.4611 4.43932 11.2025 4.69795L8.35941 7.541L11.2025 10.384C11.4611 10.6427 11.4611 11.062 11.2025 11.3206C10.9438 11.5793 10.5245 11.5793 10.2659 11.3206L7.42283 8.47758L4.57978 11.3206C4.32115 11.5793 3.90182 11.5793 3.64319 11.3206C3.38456 11.062 3.38456 10.6427 3.64319 10.384L6.48624 7.541L3.64319 4.69795C3.38456 4.43932 3.38456 4.02 3.64319 3.76136C3.90182 3.50273 4.32115 3.50273 4.57978 3.76136Z" fill="white"/>
</g>
</svg>
